# xmcd
#
# Track frame offsets: 
#        150
#        11515
#        24986
#        37024
#        50999
#        61599
#        72589
#        85346
#        96794
#        111702
#        122412
#        136598
#        148716
#        161202
#        172663
#        184884
#        196635
#        208918
#
# Disc length: 2903 seconds
#
# Revision: 1
# Processed by: cddbd v1.5.2PL0 Copyright (c) Steve Scherf et al.
# Submitted via: ExactAudioCopy v0.95b4
#
DISCID=fe0b5512
DTITLE=Various Artist - Country Ballads [CD02)
DYEAR=2007
DGENRE=Country
TTITLE0=Patsy Cline - The Heart You Break May Be Your Own
TTITLE1=David Houston - Almost Persuaded
TTITLE2=Willie Nelson - Happiness Lives Next Door
TTITLE3=Billie Jo Spears - Which Way You Goin' Billy
TTITLE4=Hank Locklin - Please Help Me I'm Falling
TTITLE5=Janie Fricke - Don't Worry About Me Baby
TTITLE6=Dolly Parton - Little Blossom
TTITLE7=Freddy Fender - I'm Leaving It Up To You
TTITLE8=Lynn Anderson - We've Only Just Begun
TTITLE9=Carl Belew - Am I That Easy To Forget
TTITLE10=Margo Smith - It Only Hurts For A Little While
TTITLE11=Stonewall Jackson - I Love You Because
TTITLE12=Wanda Jackson - Crazy
TTITLE13=Skeeter Davis - Crying Time
TTITLE14=Glen Campbell - By The Time I Get To Phoenix
TTITLE15=Charley Pride - There Goes My Everything
TTITLE16=Frankie Laine - High Noon
TTITLE17=Gene Autry - Tears On My Pillow
EXTD=
EXTT0=
EXTT1=
EXTT2=
EXTT3=
EXTT4=
EXTT5=
EXTT6=
EXTT7=
EXTT8=
EXTT9=
EXTT10=
EXTT11=
EXTT12=
EXTT13=
EXTT14=
EXTT15=
EXTT16=
EXTT17=
PLAYORDER=
